HIERARCHY
ROOT joint_Root
{
	OFFSET 0.0 0.0 0.0
	CHANNELS 6 Xposition Yposition Zposition Zrotation Xrotation Yrotation 
	JOINT Hips
	{
		OFFSET 4.5925 91.4895 -427.239
		CHANNELS 6 Xposition Yposition Zposition Zrotation Xrotation Yrotation 
		JOINT Spine
		{
			OFFSET 15.7357 0.0 0.0
			CHANNELS 6 Xposition Yposition Zposition Zrotation Xrotation Yrotation 
			JOINT Chest
			{
				OFFSET 8.98455 -0.406207 0.0
				CHANNELS 6 Xposition Yposition Zposition Zrotation Xrotation Yrotation 
				JOINT Neck
				{
					OFFSET 16.3773 0.0 0.0
					CHANNELS 6 Xposition Yposition Zposition Zrotation Xrotation Yrotation 
					JOINT Head
					{
						OFFSET 6.45672 0.0 0.0
						CHANNELS 6 Xposition Yposition Zposition Zrotation Xrotation Yrotation 
						End Site
						{
							OFFSET 0.0 0.0 0.0
						}
					}
				}
				JOINT Shoulder_L
				{
					OFFSET 12.9942 -0.242716 4.98039
					CHANNELS 6 Xposition Yposition Zposition Zrotation Xrotation Yrotation 
					JOINT UpperArm_L
					{
						OFFSET 5.34809 0.0 0.0
						CHANNELS 6 Xposition Yposition Zposition Zrotation Xrotation Yrotation 
						JOINT LowerArm_L
						{
							OFFSET 24.3286 1.87007e-05 0.0
							CHANNELS 6 Xposition Yposition Zposition Zrotation Xrotation Yrotation 
							JOINT Hand_L
							{
								OFFSET 22.2916 0.0 0.0
								CHANNELS 6 Xposition Yposition Zposition Zrotation Xrotation Yrotation 
								End Site
								{
									OFFSET 0.0 0.0 0.0
								}
							}
						}
					}
				}
				JOINT Shoulder_R
				{
					OFFSET 12.9945 -0.242716 -4.98039
					CHANNELS 6 Xposition Yposition Zposition Zrotation Xrotation Yrotation 
					JOINT UpperArm_R
					{
						OFFSET -5.34813 0.0 0.0
						CHANNELS 6 Xposition Yposition Zposition Zrotation Xrotation Yrotation 
						JOINT LowerArm_R
						{
							OFFSET -24.3289 0.000322201 0.0
							CHANNELS 6 Xposition Yposition Zposition Zrotation Xrotation Yrotation 
							JOINT Hand_R
							{
								OFFSET -22.2915 -0.000108084 0.0
								CHANNELS 6 Xposition Yposition Zposition Zrotation Xrotation Yrotation 
								End Site
								{
									OFFSET 0.0 0.0 0.0
								}
							}
						}
					}
				}
			}
		}
		JOINT UpperLeg_L
		{
			OFFSET -2.19248 -6.46944 0.0
			CHANNELS 6 Xposition Yposition Zposition Zrotation Xrotation Yrotation 
			JOINT LowerLeg_L
			{
				OFFSET 39.0811 0.0 -1.23785e-05
				CHANNELS 6 Xposition Yposition Zposition Zrotation Xrotation Yrotation 
				JOINT Foot_L
				{
					OFFSET 40.9854 0.0 -1.26872e-05
					CHANNELS 6 Xposition Yposition Zposition Zrotation Xrotation Yrotation 
					JOINT Toes_L
					{
						OFFSET 11.7543 0.0 0.0
						CHANNELS 6 Xposition Yposition Zposition Zrotation Xrotation Yrotation 
						End Site
						{
							OFFSET 0.0 0.0 0.0
						}
					}
				}
			}
		}
		JOINT UpperLeg_R
		{
			OFFSET -2.19251 6.46944 0.0
			CHANNELS 6 Xposition Yposition Zposition Zrotation Xrotation Yrotation 
			JOINT LowerLeg_R
			{
				OFFSET -39.0811 -0.00228153 -0.0401928
				CHANNELS 6 Xposition Yposition Zposition Zrotation Xrotation Yrotation 
				JOINT Foot_R
				{
					OFFSET -40.9854 0.0 0.0
					CHANNELS 6 Xposition Yposition Zposition Zrotation Xrotation Yrotation 
					JOINT Toes_R
					{
						OFFSET -11.7543 0.0 0.0
						CHANNELS 6 Xposition Yposition Zposition Zrotation Xrotation Yrotation 
						End Site
						{
							OFFSET 0.0 0.0 0.0
						}
					}
				}
			}
		}
	}
}
MOTION
Frames:	4
Frame Time:	0.0333333
0.000000 0.000000 0.000000 0.000000 0.000000 -0.000000 -1.490040 92.652700 -0.626016 87.580500 8.176730 1.478090 15.735700 0.000005 -0.000001 88.216500 86.905300 -93.068800 8.984550 -0.406207 -0.000000 -1.552590 0.201343 -9.699120 16.377300 -0.000001 -0.000001 3.372980 -4.200790 3.769890 6.456720 -0.000001 -0.000000 -2.086320 -2.330020 0.338157 12.994200 -0.242716 4.980390 -91.956200 4.618120 -67.013200 5.348090 -0.000007 -0.000001 -56.938400 9.575400 -3.386890 24.328600 0.000019 0.000005 13.367000 20.561700 -34.081400 22.291600 -0.000001 0.000005 12.416000 5.251120 1.403210 12.994500 -0.242716 -4.980390 95.744500 -14.241300 -67.759200 -5.348130 -0.000001 -0.000004 -27.157100 -73.173300 -68.576500 -24.328900 0.000322 -0.000009 -6.512470 -13.048900 -26.814200 -22.291500 -0.000108 -0.000004 18.307100 5.539310 -8.209850 -2.192480 -6.469440 -0.000000 -173.495000 -10.335800 -5.708960 39.081100 -0.000007 -0.000012 -0.048262 0.126708 20.851400 40.985400 -0.000006 -0.000013 1.119870 16.996000 -64.553200 11.754300 -0.000000 0.000003 -0.000080 -0.000852 -16.610400 -2.192510 6.469440 -0.000001 178.863000 30.594700 179.981000 -39.081100 -0.002282 -0.040193 0.002285 0.003443 16.841900 -40.985400 0.000008 0.000006 6.716480 18.858300 -65.633800 -11.754300 -0.000006 -0.000006 -0.003941 -0.050827 -18.640600
0.000000 0.000000 0.000000 0.000000 0.000000 -0.000000 -1.365310 92.665400 -0.614139 87.576900 7.588300 1.415750 15.735700 0.000005 -0.000001 86.947000 86.864700 -91.579400 8.984550 -0.406207 -0.000000 -1.485750 0.039514 -9.261530 16.377300 -0.000001 -0.000001 3.257450 -3.856580 3.653640 6.456720 -0.000001 -0.000000 -2.129120 -2.076470 0.552111 12.994200 -0.242716 4.980390 -92.030700 4.776870 -66.937200 5.348090 -0.000007 -0.000001 -57.561300 10.089800 -3.326350 24.328600 0.000019 0.000005 13.167400 20.475100 -33.774700 22.291600 -0.000001 0.000005 12.404100 5.252630 1.363080 12.994500 -0.242716 -4.980390 95.419200 -13.651400 -68.102400 -5.348130 -0.000001 -0.000004 -26.335800 -71.690100 -64.431300 -24.328900 0.000322 -0.000009 -8.818270 -12.524600 -35.572400 -22.291500 -0.000108 -0.000004 19.362400 5.547190 -8.572270 -2.192480 -6.469440 -0.000000 -173.575000 -10.656600 -5.595010 39.081100 -0.000007 -0.000012 -0.048424 0.127741 20.760400 40.985400 -0.000006 -0.000013 1.145080 16.676500 -64.583300 11.754300 -0.000000 0.000003 -0.000061 -0.000670 -16.603500 -2.192510 6.469440 -0.000001 178.827000 30.294900 179.867000 -39.081100 -0.002282 -0.040193 0.002645 0.002254 16.843700 -40.985400 0.000008 0.000006 6.756040 19.113600 -65.580700 -11.754300 -0.000006 -0.000006 -0.003674 -0.048003 -18.525600
0.000000 0.000000 0.000000 0.000000 0.000000 -0.000000 -1.199870 92.664300 -0.606984 87.575800 6.774590 1.448510 15.735700 0.000005 -0.000001 86.852700 86.803500 -91.216600 8.984550 -0.406207 -0.000000 -1.367860 -0.003580 -8.724950 16.377300 -0.000001 -0.000001 3.085060 -3.385920 3.421370 6.456720 -0.000001 -0.000000 -2.009440 -1.870970 0.735718 12.994200 -0.242716 4.980390 -92.086300 4.927220 -67.016600 5.348090 -0.000007 -0.000001 -58.292200 10.956300 -3.086630 24.328600 0.000019 0.000005 13.034500 20.470100 -33.503100 22.291600 -0.000001 0.000005 12.251100 5.249540 1.444940 12.994500 -0.242716 -4.980390 94.930000 -12.755000 -68.660200 -5.348130 -0.000001 -0.000004 -25.132900 -69.723900 -59.525600 -24.328900 0.000322 -0.000009 -10.543500 -10.507600 -45.584500 -22.291500 -0.000108 -0.000004 20.342100 5.551090 -8.757820 -2.192480 -6.469440 -0.000000 -173.671000 -11.054500 -5.389110 39.081100 -0.000007 -0.000012 -0.049603 0.130762 20.773700 40.985400 -0.000006 -0.000013 1.199600 16.222500 -64.698100 11.754300 -0.000000 0.000003 -0.000073 -0.000781 -16.607700 -2.192510 6.469440 -0.000001 178.681000 29.885300 179.831000 -39.081100 -0.002282 -0.040193 0.002899 0.001408 16.906800 -40.985400 0.000008 0.000006 6.674180 19.509200 -65.547600 -11.754300 -0.000006 -0.000006 -0.003514 -0.046282 -18.455500
0.000000 0.000000 0.000000 0.000000 0.000000 -0.000000 -0.984722 92.661700 -0.613985 87.617400 5.787290 1.507280 15.735700 0.000005 -0.000001 86.806700 86.723100 -90.875200 8.984550 -0.406207 -0.000000 -1.210940 -0.046704 -8.134600 16.377300 -0.000001 -0.000001 2.858430 -2.858830 3.128930 6.456720 -0.000001 -0.000000 -1.913430 -1.609680 0.973180 12.994200 -0.242716 4.980390 -92.146100 5.069400 -67.018200 5.348090 -0.000007 -0.000001 -59.111300 12.146400 -2.870240 24.328600 0.000019 0.000005 12.670500 20.216200 -33.047400 22.291600 -0.000001 0.000005 12.063400 5.258650 1.202900 12.994500 -0.242716 -4.980390 94.333400 -11.498700 -69.186900 -5.348130 -0.000001 -0.000004 -25.354400 -67.074900 -55.770100 -24.328900 0.000322 -0.000009 -11.174800 -7.565380 -56.323800 -22.291500 -0.000108 -0.000004 21.017300 5.544340 -8.443490 -2.192480 -6.469440 -0.000000 -173.861000 -11.354600 -5.139670 39.081100 -0.000007 -0.000012 -0.049355 0.130079 20.777900 40.985400 -0.000006 -0.000013 1.241590 15.500200 -64.806300 11.754300 -0.000000 0.000003 -0.000060 -0.000661 -16.603100 -2.192510 6.469440 -0.000001 178.488000 29.318400 179.756000 -39.081100 -0.002282 -0.040193 0.003621 -0.000960 17.046000 -40.985400 0.000008 0.000006 6.794830 19.835900 -65.637100 -11.754300 -0.000006 -0.000006 -0.003436 -0.045442 -18.421300
